HIERARCHY
ROOT Root
{
  OFFSET 0.0 0.0 0.0
  CHANNELS 6 Xposition Yposition Zposition Zrotation Yrotation Xrotation
  JOINT Hips
  {
    OFFSET 0.0 100.0 0.0
    CHANNELS 6 Xposition Yposition Zposition Zrotation Yrotation Xrotation
    JOINT Spine1
    {
      OFFSET 5.003913 -0.037094 -0.013727
      CHANNELS 3 Zrotation Yrotation Xrotation
      JOINT Spine2
      {
        OFFSET 7.125363 -1e-06 0.0
        CHANNELS 3 Zrotation Yrotation Xrotation
        JOINT Chest
        {
          OFFSET 7.594027 1e-06 0.0
          CHANNELS 3 Zrotation Yrotation Xrotation
          JOINT Neck1
          {
            OFFSET 26.313086 -0.460272 -0.181672
            CHANNELS 3 Zrotation Yrotation Xrotation
            JOINT Neck2
            {
              OFFSET 8.045911 0.0 0.0
              CHANNELS 3 Zrotation Yrotation Xrotation
              JOINT Head
              {
                OFFSET 6.432774 0.0 0.0
                CHANNELS 3 Zrotation Yrotation Xrotation
                JOINT HeadEnd
                {
                  OFFSET 16.169773 0.06451 0.00362
                  CHANNELS 3 Zrotation Yrotation Xrotation
                }
                JOINT Jaw
                {
                  OFFSET 0.108741 3.12938 0.002639
                  CHANNELS 3 Zrotation Yrotation Xrotation
                }
                JOINT LeftEye
                {
                  OFFSET 4.45173 8.166359 3.206392
                  CHANNELS 3 Zrotation Yrotation Xrotation
                }
                JOINT RightEye
                {
                  OFFSET 4.436895 8.135758 -3.222429
                  CHANNELS 3 Zrotation Yrotation Xrotation
                }
              }
            }
          }
          JOINT LeftShoulder
          {
            OFFSET 23.218927 5.195579 1.621656
            CHANNELS 3 Zrotation Yrotation Xrotation
            JOINT LeftArm
            {
              OFFSET 15.902118 2e-06 -2e-06
              CHANNELS 3 Zrotation Yrotation Xrotation
              JOINT LeftForeArm
              {
                OFFSET 28.739307 0.0 -1e-06
                CHANNELS 3 Zrotation Yrotation Xrotation
                JOINT LeftHand
                {
                  OFFSET 27.093981 -4e-06 0.0
                  CHANNELS 3 Zrotation Yrotation Xrotation
                  JOINT LeftHandThumb1
                  {
                    OFFSET 2.276781 3.380274 0.83384
                    CHANNELS 3 Zrotation Yrotation Xrotation
                    JOINT LeftHandThumb2
                    {
                      OFFSET 4.705309 -1e-06 -1e-06
                      CHANNELS 3 Zrotation Yrotation Xrotation
                      JOINT LeftHandThumb3
                      {
                        OFFSET 2.798515 0.0 3e-06
                        CHANNELS 3 Zrotation Yrotation Xrotation
                        JOINT LeftHandThumbEnd
                        {
                          OFFSET 3.180793 4e-06 -4e-06
                          CHANNELS 3 Zrotation Yrotation Xrotation
                        }
                      }
                    }
                  }
                  JOINT LeftHandIndex1
                  {
                    OFFSET 3.247786 2.352677 0.137192
                    CHANNELS 3 Zrotation Yrotation Xrotation
                    JOINT LeftHandIndex2
                    {
                      OFFSET 6.367095 1e-06 0.0
                      CHANNELS 3 Zrotation Yrotation Xrotation
                      JOINT LeftHandIndex3
                      {
                        OFFSET 3.662364 0.0 0.0
                        CHANNELS 3 Zrotation Yrotation Xrotation
                        JOINT LeftHandIndex4
                        {
                          OFFSET 2.329242 4e-06 -4e-06
                          CHANNELS 3 Zrotation Yrotation Xrotation
                          JOINT LeftHandIndexEnd
                          {
                            OFFSET 2.767823 1e-06 0.0
                            CHANNELS 3 Zrotation Yrotation Xrotation
                          }
                        }
                      }
                    }
                  }
                  JOINT LeftHandMiddle1
                  {
                    OFFSET 3.163612 0.945023 -0.406112
                    CHANNELS 3 Zrotation Yrotation Xrotation
                    JOINT LeftHandMiddle2
                    {
                      OFFSET 6.276789 3e-06 0.0
                      CHANNELS 3 Zrotation Yrotation Xrotation
                      JOINT LeftHandMiddle3
                      {
                        OFFSET 4.35652 -1e-06 4e-06
                        CHANNELS 3 Zrotation Yrotation Xrotation
                        JOINT LeftHandMiddle4
                        {
                          OFFSET 2.996877 0.0 8e-06
                          CHANNELS 3 Zrotation Yrotation Xrotation
                          JOINT LeftHandMiddleEnd
                          {
                            OFFSET 2.323256 3e-06 -4e-06
                            CHANNELS 3 Zrotation Yrotation Xrotation
                          }
                        }
                      }
                    }
                  }
                  JOINT LeftHandRing1
                  {
                    OFFSET 2.882606 -0.309162 0.107445
                    CHANNELS 3 Zrotation Yrotation Xrotation
                    JOINT LeftHandRing2
                    {
                      OFFSET 6.033198 0.0 4e-06
                      CHANNELS 3 Zrotation Yrotation Xrotation
                      JOINT LeftHandRing3
                      {
                        OFFSET 4.350578 3e-06 0.0
                        CHANNELS 3 Zrotation Yrotation Xrotation
                        JOINT LeftHandRing4
                        {
                          OFFSET 2.651321 2e-06 -7e-06
                          CHANNELS 3 Zrotation Yrotation Xrotation
                          JOINT LeftHandRingEnd
                          {
                            OFFSET 1.937663 1e-06 -4e-06
                            CHANNELS 3 Zrotation Yrotation Xrotation
                          }
                        }
                      }
                    }
                  }
                  JOINT LeftHandPinky1
                  {
                    OFFSET 2.865315 -1.525436 0.575687
                    CHANNELS 3 Zrotation Yrotation Xrotation
                    JOINT LeftHandPinky2
                    {
                      OFFSET 5.54936 1e-06 -8e-06
                      CHANNELS 3 Zrotation Yrotation Xrotation
                      JOINT LeftHandPinky3
                      {
                        OFFSET 3.070974 0.0 -4e-06
                        CHANNELS 3 Zrotation Yrotation Xrotation
                        JOINT LeftHandPinky4
                        {
                          OFFSET 1.549672 1e-06 0.0
                          CHANNELS 3 Zrotation Yrotation Xrotation
                          JOINT LeftHandPinkyEnd
                          {
                            OFFSET 1.952123 0.0 0.0
                            CHANNELS 3 Zrotation Yrotation Xrotation
                          }
                        }
                      }
                    }
                  }
                }
              }
            }
          }
          JOINT RightShoulder
          {
            OFFSET 23.161716 5.296122 -1.380114
            CHANNELS 3 Zrotation Yrotation Xrotation
            JOINT RightArm
            {
              OFFSET -16.027195 -2e-06 1.1e-05
              CHANNELS 3 Zrotation Yrotation Xrotation
              JOINT RightForeArm
              {
                OFFSET -28.736639 4e-06 2e-06
                CHANNELS 3 Zrotation Yrotation Xrotation
                JOINT RightHand
                {
                  OFFSET -27.133619 6e-06 0.0
                  CHANNELS 3 Zrotation Yrotation Xrotation
                  JOINT RightHandThumb1
                  {
                    OFFSET -2.274328 -3.351035 -0.83067
                    CHANNELS 3 Zrotation Yrotation Xrotation
                    JOINT RightHandThumb2
                    {
                      OFFSET -4.703594 -3e-06 2e-06
                      CHANNELS 3 Zrotation Yrotation Xrotation
                      JOINT RightHandThumb3
                      {
                        OFFSET -2.794935 -4e-06 -3e-06
                        CHANNELS 3 Zrotation Yrotation Xrotation
                        JOINT RightHandThumbEnd
                        {
                          OFFSET -3.183852 4e-06 1e-06
                          CHANNELS 3 Zrotation Yrotation Xrotation
                        }
                      }
                    }
                  }
                  JOINT RightHandIndex1
                  {
                    OFFSET -3.253496 -2.33755 -0.127667
                    CHANNELS 3 Zrotation Yrotation Xrotation
                    JOINT RightHandIndex2
                    {
                      OFFSET -6.344434 0.0 0.0
                      CHANNELS 3 Zrotation Yrotation Xrotation
                      JOINT RightHandIndex3
                      {
                        OFFSET -3.654871 0.0 -8e-06
                        CHANNELS 3 Zrotation Yrotation Xrotation
                        JOINT RightHandIndex4
                        {
                          OFFSET -2.327586 -1e-06 0.0
                          CHANNELS 3 Zrotation Yrotation Xrotation
                          JOINT RightHandIndexEnd
                          {
                            OFFSET -2.770001 3e-06 8e-06
                            CHANNELS 3 Zrotation Yrotation Xrotation
                          }
                        }
                      }
                    }
                  }
                  JOINT RightHandMiddle1
                  {
                    OFFSET -3.168223 -0.944764 0.411762
                    CHANNELS 3 Zrotation Yrotation Xrotation
                    JOINT RightHandMiddle2
                    {
                      OFFSET -6.266691 -1e-06 -4e-06
                      CHANNELS 3 Zrotation Yrotation Xrotation
                      JOINT RightHandMiddle3
                      {
                        OFFSET -4.348901 0.0 0.0
                        CHANNELS 3 Zrotation Yrotation Xrotation
                        JOINT RightHandMiddle4
                        {
                          OFFSET -3.00024 2e-06 -4e-06
                          CHANNELS 3 Zrotation Yrotation Xrotation
                          JOINT RightHandMiddleEnd
                          {
                            OFFSET -2.321477 -4e-06 -4e-06
                            CHANNELS 3 Zrotation Yrotation Xrotation
                          }
                        }
                      }
                    }
                  }
                  JOINT RightHandRing1
                  {
                    OFFSET -2.885654 0.293261 -0.119232
                    CHANNELS 3 Zrotation Yrotation Xrotation
                    JOINT RightHandRing2
                    {
                      OFFSET -6.032835 -1e-06 -4e-06
                      CHANNELS 3 Zrotation Yrotation Xrotation
                      JOINT RightHandRing3
                      {
                        OFFSET -4.33881 0.0 -4e-06
                        CHANNELS 3 Zrotation Yrotation Xrotation
                        JOINT RightHandRing4
                        {
                          OFFSET -2.654903 -4e-06 -4e-06
                          CHANNELS 3 Zrotation Yrotation Xrotation
                          JOINT RightHandRingEnd
                          {
                            OFFSET -1.935122 0.0 4e-06
                            CHANNELS 3 Zrotation Yrotation Xrotation
                          }
                        }
                      }
                    }
                  }
                  JOINT RightHandPinky1
                  {
                    OFFSET -2.866241 1.503904 -0.60527
                    CHANNELS 3 Zrotation Yrotation Xrotation
                    JOINT RightHandPinky2
                    {
                      OFFSET -5.553177 -2e-06 0.0
                      CHANNELS 3 Zrotation Yrotation Xrotation
                      JOINT RightHandPinky3
                      {
                        OFFSET -3.062664 -1e-06 -4e-06
                        CHANNELS 3 Zrotation Yrotation Xrotation
                        JOINT RightHandPinky4
                        {
                          OFFSET -1.546529 2e-06 4e-06
                          CHANNELS 3 Zrotation Yrotation Xrotation
                          JOINT RightHandPinkyEnd
                          {
                            OFFSET -1.952341 0.0 -4e-06
                            CHANNELS 3 Zrotation Yrotation Xrotation
                          }
                        }
                      }
                    }
                  }
                }
              }
            }
          }
        }
      }
    }
    JOINT LeftLeg
    {
      OFFSET -8.443107 2.567604 10.043214
      CHANNELS 3 Zrotation Yrotation Xrotation
      JOINT LeftShin
      {
        OFFSET 43.229198 1e-06 -1e-06
        CHANNELS 3 Zrotation Yrotation Xrotation
        JOINT LeftFoot
        {
          OFFSET 42.298611 1e-06 1e-06
          CHANNELS 3 Zrotation Yrotation Xrotation
          JOINT LeftToeBase
          {
            OFFSET 14.165858 1e-06 0.0
            CHANNELS 3 Zrotation Yrotation Xrotation
            JOINT LeftToeEnd
            {
              OFFSET 6.7141 -0.234461 0.0
              CHANNELS 3 Zrotation Yrotation Xrotation
            }
          }
        }
      }
    }
    JOINT RightLeg
    {
      OFFSET -8.303923 2.592729 -10.047278
      CHANNELS 3 Zrotation Yrotation Xrotation
      JOINT RightShin
      {
        OFFSET -43.369682 0.0 1e-06
        CHANNELS 3 Zrotation Yrotation Xrotation
        JOINT RightFoot
        {
          OFFSET -42.260784 4e-06 2e-06
          CHANNELS 3 Zrotation Yrotation Xrotation
          JOINT RightToeBase
          {
            OFFSET -14.222245 -2e-06 -1e-06
            CHANNELS 3 Zrotation Yrotation Xrotation
            JOINT RightToeEnd
            {
              OFFSET -6.660062 0.232574 -2e-06
              CHANNELS 3 Zrotation Yrotation Xrotation
            }
          }
        }
      }
    }
  }
}
MOTION
Frames: 4
Frame Time: 0.03333333333333333
0.0 0.0 0.0 0.0 -0.0 0.0 2.224276 14.782876 124.123337 -72.955421 -79.608383 -47.549061 1.413734 -9.640646 -3.741551 -10.998704 -2.624485 -2.231425 16.053833 -9.677698 -7.960513 38.504547 17.011957 1.399812 -1.735457 5.631664 -0.65935 -10.403752 4.826751 -4.799311 5e-06 -1e-06 -0.0 -0.384326 0.355815 -0.029625 0.867765 0.891122 0.086308 1.598943 -0.251099 -0.132914 -17.736738 -78.987816 27.968134 52.538307 -26.453901 -42.761108 113.808998 0.429784 0.139301 5.381007 28.23711 16.480654 17.636627 -26.322729 52.411186 -19.466656 -14.395602 29.410385 2e-06 -8.774822 0.0 14.979275 -18.24754 6.990432 -0.609776 -1.795655 -3.889329 -4.807089 -11.046811 -2.937847 3e-06 -20.976019 -0.0 -5.019969 -25.033558 -4.03188 6e-06 -0.0 -2e-06 -10.634533 -5.686971 -3.565586 10.573272 -17.922949 -3.113899 1e-06 -13.821211 1e-06 -0.501776 -31.181505 -4.027017 -14.174582 -59.729546 9.439128 -13.982713 -7.150198 -2.875041 13.77273 -8.401493 -3.218241 0.347733 -34.211552 0.771652 -0.963029 -17.73337 2.62102 0.0 -0.0 0.0 -17.346415 -20.095215 -4.201782 21.757559 -1.638375 3.866426 1e-06 -6.338826 0.0 -1.697588 -22.591743 -6.194005 -1e-06 -5e-06 -2e-06 121.239861 -61.302143 69.435028 -104.733406 -65.00679 95.253906 173.029205 -13.170959 0.7156 14.879685 21.65177 85.781647 22.182108 -20.375895 49.933319 -16.701807 -16.743528 28.47653 -3e-06 -12.6906 0.0 15.813444 -16.357027 2.741627 -0.105919 -1.513856 -4.27588 -5.039041 -5.612872 -2.953557 6e-06 -11.020519 -2e-06 -6.111295 -15.895328 -3.840472 1e-06 1e-06 0.0 -10.283369 -5.680288 -4.341838 11.028291 -11.302399 -2.372632 -1.384269 -14.238577 -6.320119 -0.625439 -26.924179 -3.827602 -3.695574 -48.747318 -4.640906 -13.708523 -7.363472 -3.720938 18.141146 -14.052731 -3.242672 5e-06 -18.787266 -3e-06 -0.429711 -8.456041 2.555503 0.0 -1e-06 0.0 -15.923532 -20.094477 -5.473584 30.419205 -7.190821 1.735926 2e-06 -8.162922 -1e-06 -1.861902 -22.861467 -6.167942 1e-06 -2e-06 -2e-06 88.77903 0.159719 -10.257905 93.586166 -5.633234 2.108148 -51.428349 1.21356 -5.994158 -7.488903 1.806692 3.320821 -0.999999 1e-06 0.0 5.326847 -15.636117 43.840687 28.813047 10.692533 -33.789913 -68.511757 -2.337333 -25.060951 -8.040089 0.291357 1.027426 -1.000006 -0.0 -1e-06 
0.0 0.0 0.0 0.0 -0.0 0.0 2.259533 14.699203 124.273369 -72.942093 -79.590546 -47.649189 1.371272 -9.558674 -3.72467 -11.048593 -2.596184 -2.217179 16.094742 -9.627906 -7.89281 38.736656 16.720455 1.426538 -1.681106 5.714406 -0.393625 -10.052095 4.947093 -4.295536 5e-06 1e-06 0.0 -0.393013 0.323389 -0.06851 0.856998 0.849169 0.064914 1.604543 -0.271246 -0.191343 -18.033838 -78.963577 28.41958 52.395535 -26.074842 -42.686325 113.805061 0.473075 0.108924 5.616039 29.020136 17.461992 17.636627 -26.322737 52.411201 -19.466665 -14.395602 29.410393 -2e-06 -8.774822 -0.0 15.116885 -18.274761 6.954435 -0.609776 -1.795653 -3.889327 -4.807092 -11.046813 -2.93785 2e-06 -20.976019 -1e-06 -5.019972 -25.03356 -4.031878 6e-06 0.0 -1e-06 -10.634538 -5.686972 -3.565586 10.573279 -17.922951 -3.113903 2e-06 -13.821213 1e-06 -0.501778 -31.181507 -4.027014 -14.137042 -59.830936 9.448481 -13.982718 -7.150199 -2.87504 13.772734 -8.40149 -3.218244 0.347733 -34.211555 0.771656 -0.96303 -17.733372 2.621021 0.0 0.0 -1e-06 -17.346426 -20.095221 -4.201778 21.757566 -1.638375 3.866426 1e-06 -6.338825 0.0 -1.697589 -22.591743 -6.194005 -1e-06 -5e-06 -2e-06 121.78524 -61.201206 69.143211 -105.875328 -64.780174 97.573883 172.789536 -14.042568 0.868617 15.78543 21.55286 87.198166 22.182116 -20.375896 49.933331 -16.701817 -16.743534 28.476542 -3e-06 -12.690607 -0.0 15.891907 -16.382156 2.708817 -0.10592 -1.513857 -4.275884 -5.039042 -5.612874 -2.953556 4e-06 -11.020524 -2e-06 -6.111301 -15.895338 -3.840472 1e-06 -1e-06 1e-06 -10.283374 -5.680289 -4.341839 11.028296 -11.302406 -2.372634 -1.384268 -14.238585 -6.320123 -0.625438 -26.924194 -3.827605 -3.757185 -48.855007 -4.54279 -13.708528 -7.363476 -3.720939 18.141157 -14.05274 -3.242676 2e-06 -18.787275 -3e-06 -0.429714 -8.456045 2.555502 1e-06 -1e-06 2e-06 -15.923541 -20.094486 -5.473586 30.419224 -7.190826 1.735926 3e-06 -8.162927 -2e-06 -1.861902 -22.861473 -6.167945 1e-06 -3e-06 -2e-06 88.982384 0.077948 -10.224943 93.460266 -5.649225 2.13817 -51.57505 1.216908 -5.807059 -7.527271 1.801638 3.309101 -1.0 1e-06 1e-06 5.611653 -15.729585 43.78141 28.130032 10.450609 -33.932285 -68.399712 -2.310177 -24.877239 -8.00828 0.305093 1.026525 -1.000004 0.0 -0.0 
0.0 0.0 0.0 0.0 -0.0 0.0 2.248622 14.6734 124.435715 -72.915833 -79.562271 -47.747719 1.318547 -9.469983 -3.717343 -11.094478 -2.59797 -2.23894 16.133831 -9.57703 -7.803346 38.849506 16.440125 1.450067 -1.627231 5.7835 -0.151426 -9.778009 5.077041 -3.970974 5e-06 -0.0 1e-06 -0.397837 0.306053 -0.097384 0.856824 0.828118 0.051276 1.628615 -0.283348 -0.235027 -18.113213 -78.862038 28.595448 52.268906 -25.790995 -42.509525 113.752815 0.582731 0.174975 5.764587 29.706768 18.1586 17.636625 -26.32272 52.411194 -19.466665 -14.395598 29.410395 2e-06 -8.774822 -1e-06 15.263171 -18.26302 6.887305 -0.609776 -1.795653 -3.88933 -4.807089 -11.04681 -2.937851 3e-06 -20.976015 -3e-06 -5.019968 -25.03356 -4.031885 6e-06 -0.0 1e-06 -10.634535 -5.686971 -3.565586 10.573273 -17.922947 -3.113905 3e-06 -13.821211 -2e-06 -0.501771 -31.181498 -4.027023 -14.092966 -59.921169 9.418715 -13.982716 -7.150201 -2.875042 13.772733 -8.40149 -3.218244 0.347739 -34.211544 0.771646 -0.963026 -17.733366 2.621017 -1e-06 -0.0 1e-06 -17.346422 -20.095221 -4.201784 21.757563 -1.638374 3.866428 1e-06 -6.338825 -0.0 -1.697588 -22.591742 -6.19401 0.0 -6e-06 -2e-06 122.403275 -61.081234 68.793442 -107.159103 -64.71405 99.900414 172.449158 -14.843096 1.014078 16.706066 21.412531 88.447487 22.182112 -20.375895 49.933308 -16.701809 -16.743526 28.476524 -5e-06 -12.6906 -1e-06 15.987264 -16.414257 2.662891 -0.105918 -1.513854 -4.275879 -5.039038 -5.612873 -2.953555 5e-06 -11.020521 -1e-06 -6.1113 -15.89533 -3.840467 1e-06 -1e-06 1e-06 -10.283369 -5.680286 -4.341836 11.028293 -11.302402 -2.372632 -1.384268 -14.23858 -6.320117 -0.625439 -26.924191 -3.827597 -3.811896 -48.934361 -4.476638 -13.708518 -7.363474 -3.720937 18.141142 -14.052737 -3.242672 6e-06 -18.78727 0.0 -0.429711 -8.456043 2.555505 -0.0 -1e-06 0.0 -15.923534 -20.094481 -5.473582 30.41921 -7.190824 1.735924 3e-06 -8.162927 -1e-06 -1.861901 -22.861469 -6.167941 1e-06 -3e-06 -1e-06 89.178322 -0.024787 -10.211874 93.233276 -5.607404 2.167612 -51.576664 1.232089 -5.603348 -7.633219 1.788443 3.290183 -0.999997 1e-06 -1e-06 5.831052 -15.806593 43.789505 27.511776 10.193413 -34.122845 -68.185143 -2.266535 -24.813955 -8.046581 0.329522 1.034625 -1.000006 -1e-06 -0.0 
0.0 0.0 0.0 0.0 -0.0 0.0 2.218425 14.671463 124.591187 -72.959297 -79.512566 -47.765011 1.254878 -9.418783 -3.729924 -11.134007 -2.613117 -2.281543 16.180603 -9.511254 -7.72726 38.868599 16.203785 1.495142 -1.586626 5.803515 0.056499 -9.625386 5.151222 -3.774812 9e-06 1e-06 1e-06 -0.392942 0.310574 -0.106867 0.876544 0.832678 0.051095 1.669646 -0.278625 -0.25144 -18.104078 -78.667862 28.62215 52.22163 -25.641932 -42.268147 113.683678 0.802536 0.27736 5.829791 30.308271 18.540075 17.636621 -26.322737 52.411209 -19.466667 -14.395602 29.410398 -0.0 -8.774822 -0.0 15.368256 -18.205187 6.792608 -0.609776 -1.795654 -3.889328 -4.807088 -11.046813 -2.93785 3e-06 -20.976021 -1e-06 -5.01997 -25.033562 -4.031881 6e-06 -0.0 3e-06 -10.634534 -5.686972 -3.565588 10.573277 -17.922955 -3.113902 2e-06 -13.821214 2e-06 -0.501776 -31.181511 -4.027017 -14.028975 -59.964664 9.340722 -13.982714 -7.150198 -2.875042 13.772731 -8.401493 -3.218243 0.347734 -34.211555 0.771653 -0.963028 -17.733372 2.62102 -0.0 -0.0 -0.0 -17.34642 -20.095221 -4.20178 21.757561 -1.638376 3.866426 1e-06 -6.338828 0.0 -1.697589 -22.591751 -6.19401 0.0 -4e-06 -3e-06 122.977859 -60.985844 68.505241 -108.430725 -64.871246 102.171181 171.994431 -15.600357 1.156988 17.653807 21.234047 89.62867 22.182121 -20.3759 49.933331 -16.701822 -16.743536 28.47654 -4e-06 -12.690607 -1e-06 16.030132 -16.428793 2.610677 -0.105919 -1.513856 -4.275882 -5.03904 -5.612876 -2.953556 5e-06 -11.020527 -2e-06 -6.1113 -15.895339 -3.840471 -0.0 3e-06 1e-06 -10.283375 -5.680291 -4.34184 11.028301 -11.302411 -2.372635 -1.384268 -14.238588 -6.320124 -0.625439 -26.924204 -3.827604 -3.870062 -48.984264 -4.423211 -13.70853 -7.363476 -3.72094 18.141157 -14.052745 -3.242676 6e-06 -18.787281 -3e-06 -0.429709 -8.456047 2.555504 -1e-06 -1e-06 0.0 -15.923541 -20.09449 -5.473585 30.419224 -7.190827 1.735926 4e-06 -8.16293 -2e-06 -1.861899 -22.861481 -6.167947 1e-06 -3e-06 -2e-06 89.358025 -0.140124 -10.267822 92.974472 -5.567038 2.185576 -51.471333 1.280749 -5.39052 -7.750543 1.784625 3.270215 -1.0 1e-06 -0.0 6.001206 -15.886435 43.843452 26.978846 9.947731 -34.301041 -67.863968 -2.265438 -24.830975 -8.135437 0.356987 1.043148 -1.000005 0.0 1e-06 
